<svg id="svg" version="1.1" xmlns="http://www.w3.org/2000/svg" xmlns:xlink="http://www.w3.org/1999/xlink" width="400" height="398.2222222222222" viewBox="0, 0, 400,398.2222222222222"><g id="svgg"><path id="path0" d="M199.661 18.760 C 197.346 24.804,178.930 61.653,165.531 87.052 C 163.012 91.828,156.378 105.094,154.612 108.887 C 145.012 129.511,143.800 149.827,151.152 166.860 C 152.411 169.777,155.374 175.578,156.174 176.693 C 156.332 176.912,157.316 178.705,158.361 180.677 C 163.660 190.672,167.537 198.482,170.328 204.781 C 173.047 210.920,174.264 213.921,177.351 222.112 C 178.223 224.425,180.316 231.152,182.277 237.948 C 184.322 245.036,187.164 260.191,187.918 268.028 L 188.157 270.518 186.516 270.518 C 184.618 270.518,184.739 270.803,184.063 264.741 C 179.479 223.637,154.833 188.052,121.413 174.283 C 120.044 173.718,118.386 173.021,117.729 172.732 C 102.654 166.114,78.454 165.056,62.814 170.330 C 45.342 176.223,29.159 194.111,24.980 212.151 C 23.545 218.345,23.350 219.963,23.352 225.697 C 23.356 250.432,40.029 269.103,70.282 278.254 C 75.887 279.949,75.611 280.053,74.147 276.790 C 67.317 261.567,74.072 239.949,88.256 231.638 C 109.837 218.993,147.060 235.696,161.137 264.343 C 164.328 270.836,164.667 270.276,157.371 270.552 C 146.129 270.978,140.221 275.385,141.784 282.181 C 143.121 287.994,148.108 290.438,158.628 290.438 C 166.386 290.438,165.945 290.108,164.370 294.740 C 160.619 305.768,154.003 310.930,143.625 310.925 C 126.451 310.918,120.232 296.398,129.515 277.978 C 131.512 274.013,131.592 274.221,127.988 274.011 C 106.277 272.751,92.231 285.621,92.231 306.773 C 92.231 328.467,109.080 342.429,135.259 342.430 C 164.485 342.431,182.466 324.194,184.952 292.032 C 185.063 290.596,187.862 289.695,188.921 290.753 C 189.321 291.153,188.717 305.066,188.009 311.752 L 187.588 315.735 185.358 317.722 C 182.469 320.297,180.463 323.445,178.668 328.222 C 177.872 330.339,176.681 333.506,176.020 335.259 C 173.069 343.084,168.787 349.390,164.753 351.851 L 163.546 352.587 166.733 352.585 C 173.343 352.583,180.283 350.920,182.910 348.708 C 184.359 347.489,184.649 347.755,184.988 350.617 C 185.406 354.147,187.977 359.585,192.608 366.733 C 195.083 370.553,195.720 371.595,198.538 376.430 C 199.730 378.476,200.794 380.000,200.901 379.816 C 201.008 379.632,202.201 377.382,203.552 374.816 C 204.904 372.250,207.001 368.485,208.213 366.450 C 211.800 360.425,215.055 353.438,215.597 350.598 C 216.212 347.375,216.068 347.510,217.622 348.696 C 220.588 350.959,228.798 352.834,234.361 352.520 L 236.651 352.390 234.495 350.726 C 230.663 347.766,228.402 343.827,225.444 334.954 C 222.143 325.048,220.410 321.778,215.923 316.981 L 213.587 314.485 213.182 310.330 C 212.532 303.675,211.860 291.651,212.103 291.019 C 212.352 290.370,214.946 290.202,215.322 290.810 C 215.449 291.015,215.808 293.241,216.120 295.758 C 219.864 325.940,237.158 342.396,265.139 342.404 C 291.245 342.411,308.748 328.030,308.748 306.574 C 308.748 286.977,295.361 273.992,275.205 274.038 C 268.787 274.053,269.014 273.760,271.522 278.794 C 279.818 295.449,274.933 308.777,259.773 310.848 C 248.664 312.366,239.031 305.580,236.050 294.137 C 235.024 290.197,234.424 290.517,243.127 290.369 C 254.998 290.168,260.346 286.706,259.669 279.660 C 259.102 273.756,254.203 270.928,244.024 270.627 C 236.542 270.405,236.792 270.535,237.982 267.498 C 243.890 252.423,258.585 238.371,275.520 231.603 C 276.165 231.345,277.410 230.841,278.287 230.483 C 294.669 223.791,312.364 227.615,321.591 239.841 C 329.347 250.117,331.397 266.813,326.214 277.483 C 325.155 279.662,325.312 279.861,327.537 279.150 C 328.497 278.843,330.538 278.195,332.072 277.711 C 361.342 268.470,376.979 250.387,377.048 225.697 C 377.129 196.911,354.698 171.114,326.494 167.556 C 285.294 162.359,244.869 186.364,227.241 226.494 C 226.470 228.247,225.683 230.040,225.491 230.478 C 225.074 231.431,223.825 234.613,222.960 236.928 C 220.805 242.697,217.726 255.646,216.726 263.147 C 215.689 270.930,215.893 270.319,214.333 270.319 L 212.948 270.319 213.070 268.526 C 213.920 256.060,220.232 228.661,224.313 219.721 C 224.513 219.283,225.378 217.042,226.234 214.741 C 227.091 212.440,228.270 209.482,228.854 208.167 C 229.439 206.853,230.223 205.063,230.596 204.191 C 231.814 201.344,243.257 178.730,244.366 176.978 C 251.202 166.175,253.986 156.398,253.977 143.227 C 253.969 132.710,253.154 127.829,249.851 118.526 C 246.703 109.658,245.451 107.044,231.180 79.557 C 217.589 53.379,207.877 34.132,204.003 25.697 C 200.287 17.607,200.173 17.424,199.661 18.760 " stroke="none" fill="#632b84" fill-rule="evenodd"></path></g></svg>