<svg xmlns="http://www.w3.org/2000/svg" version="1.1" xmlns:xlink="http://www.w3.org/1999/xlink" width="1000" height="1000"><g clip-path="url(#SvgjsClipPath1185)"><rect width="1000" height="1000" fill="#ffffff"></rect><g transform="matrix(0.9,0,0,0.9,50,50)"><svg xmlns="http://www.w3.org/2000/svg" version="1.1" xmlns:xlink="http://www.w3.org/1999/xlink" width="1000" height="1000"><svg id="Layer_1" xmlns="http://www.w3.org/2000/svg" version="1.1" viewBox="0 0 1000 1000">
  <!-- Generator: Adobe Illustrator 29.2.1, SVG Export Plug-In . SVG Version: 2.1.0 Build 116)  -->
  <defs>
    <style>
      .st0 {
        fill: #191a4b;
      }
    </style>
  <clipPath id="SvgjsClipPath1185"><rect width="1000" height="1000" x="0" y="0" rx="500" ry="500"></rect></clipPath></defs>
  <path class="st0" d="M927.3,149.9c-2-2.2-8.1-2.5-41.8-2.5h-39.5l-1.7-5.1c-1.9-5.4-17.7-36.3-20.1-39.3-.9-1.2-3.3.3-7.9,5.4-8.5,9.4-10.5,11.2-24.2,21.5-21.5,16.3-27.3,18-34.2,10.5-2.8-2.9-3.3-4.8-2.5-9,1.1-5.7,3.3-7.7,30.8-27.3,7.4-5.3,14.3-11,15-12.5.9-1.5,1.5-6.2,1.5-10.4,0-10.1-6.5-19.5-27.9-41.2-18.3-18.3-17.5-18-34.9-14.3-27.7,5.9-45.4,10.5-49.6,13-12.1,6.8-12.5,19.2-1.5,51,6.4,18.4,6.8,21.1,5.1,24.8-2.8,5.7-9.1,7.7-14.1,4.5-8.4-5.4-17.2-28.3-21.5-55.3-1.1-6.8-2.5-12.4-3.1-12.4-1.4,0-22.6,11.6-32.1,17.7-11.3,7.3-21.5,18.4-22.8,24.9-2.6,14.4,11.2,37.8,37.6,63.5,14.7,14.3,17.5,17.8,17.5,21.7s-1.1,6.2-2.3,8.1c-5.7,8.4-18.7,4.5-33.2-9.9-11.6-11.8-29.4-38.9-35.9-54.8l-5.1-12.9-11.6,12.5c-6.5,6.8-13.5,15.2-15.6,18.7l-3.9,6.4h-74.7c0,.2-74.8.2-74.8.2v-23.9c0-13.2-.6-25.7-1.5-27.9-.8-2.2-3.7-5.4-6.5-7.1-5-2.9-7.9-3.1-113.2-3.1s-108.8.3-112.6,2.3c-8.7,4.5-9.3,6.8-9.3,34.4v25.3h-40.1c-34.7,0-40.6.3-42.8,2.5s-2.3,22.8-2,223.4l.5,221.1,3.6,19.4c10.7,58.1,31.9,106.1,64.8,147,45.5,56.5,123.9,108.1,261.7,172.1,79.3,36.9,94.5,43.4,100.7,43.4s12.2-2.8,26.3-9.4c11.2-5.1,28.5-13.3,38.7-18,31.3-14.6,113.4-55,136.3-67.4,55.8-29.9,92-54.5,120.8-82,61.2-58.4,95.6-125,103.8-201.2,1.9-17.4,2.3-57.6,2.3-233.5s-.3-212.7-2.5-214.9h0ZM596,200.6c9.3,7.4,29.1,20.9,49.6,33.8,6,3.7,14.1,9.3,18,12.5,3.9,3.3,7.7,5.9,8.5,5.9s6.7-15.8,12.9-35.3c17.8-55.6,38.3-113.6,46.9-133.5,8.1-18.4,10.2-22.9,14.1-29.1,4.8-7.4,7.3-8.2,3.4-.9-1.2,2.5-2.3,5.4-2.3,6.5,0,3.3-7.3,28.3-16.3,56.1-7.1,21.8-17.5,56.5-28.8,95.6-1.5,5.4-2.3,9.8-1.9,9.8s4-2.6,8.1-6c13.9-11.6,27.3-19.1,74.5-41.7,12.4-5.9,25.6-12.9,29.3-15.5,12.2-8.8,9.6-1.7-3.3,9.1-12.5,10.5-20,15-57.8,35.5-20.1,10.8-34.2,21.4-47.2,35.2-9,9.4-12.7,14.7-14.1,19.5-.9,3.6-2.3,7.3-3.1,8.2-2.2,2.6,5.1,3.6,36.9,4.6,18,.6,37.2.3,52.4-.9,13.3-1.1,24.5-1.5,24.9-1.1,1.1,1.1-23.5,8.5-35.8,10.7-10.8,1.9-57.5,2.6-73.6,1.2l-8.5-.8-5.9,18.6c-3.3,10.2-6.2,19.5-6.7,20.8-.6,1.7-1.2,1.5-3.7-.6-1.7-1.5-3.6-2.3-4.2-1.9-.5.6,0,1.1.8,1.1s4.6,3.9,8.1,8.7c3.6,4.6,9.1,10.4,12.4,12.7,3.4,2.3,5.9,4.8,5.7,5.4,0,.8-10.2,6.4-22.2,12.5l-21.8,11.2,1.2-4.8c.6-2.5,3.4-13.8,6.2-24.8,2.6-11.2,5.6-21.8,6.4-24,2.8-7.1,11.8-44,11.2-45.2-.3-.5-6.4-5-13.5-9.9-35.5-24.8-57.5-42.8-69.4-57-15-17.7-11.8-18.4,8.7-2h0ZM787.6,336.9c5.4,2.9,16.7,8.8,25.3,13.5,8.5,4.5,28,14.7,43.4,22.8,15.3,8.1,29.9,16.7,32.2,19.4,4,4.2,4.2,5,2.2,7.9-1.2,1.9-8.7,7.1-16.7,11.8s-29.6,17-47.9,27.7c-41.8,24.3-46.6,26.6-56.9,26.6s-13-1.1-31.4-11.9c-8.1-4.8-22-13-31-18.3-9-5.3-25.7-14.9-37.3-21.4-11.6-6.5-21.7-13-22.2-14.4-1.4-3.7,0-7.7,4.2-10.4,4.8-3.1,48-26,82-43.5,34.5-17.7,38-18.3,54.2-9.8h0ZM510,172.2h26.6l-.9,5.3c-2.2,11,9.6,31.6,24.5,42.8,8.4,6.4,27.1,16.1,34.1,18,5.4,1.2,10.2,7.6,10.2,13.3s-6.2,12.1-11.9,12.1c-9-.2-27.9-9.8-47.4-24.3-4.8-3.7-9.4-6.7-10.2-6.7-6.2,0-1.9,33.9,6.7,53.1,7.6,17.2,26.2,34.4,42.6,39.3,14.4,4.3,36.4,2.3,48-4.3,5.7-3.4,7.3-3.1,5.1,1.2-1.7,3.3-9.6,33-13.3,50.2-1.7,7.6-4.5,14.7-7.9,20l-5.4,8.4v78.5l-8.8-5.7c-25.6-16.6-54.1-27-84.4-30.8l-7.4-.9V172.2h0ZM398.4,173.8h91.4v267.5l-4.8,1.1c-2.6.5-6.8.9-9.1.9s-11.2,1.7-19.5,3.9l-15.2,3.9-10.2-6.8c-10.1-6.8-26.8-16.7-49-29.3l-11-6.2,10.5-13c12.1-15.2,17.7-26.2,21.2-41.8,1.5-6.2,3.4-11.3,4.3-11.3,4,0,17.7-14.4,21.5-22.8,3.6-7.6,4.2-10.2,3.6-20.6-.3-9.9-1.2-13-4.8-18.4-2.5-3.6-7.4-8.5-11.2-10.7l-6.8-4.2v-25.6h5.9c19.2-.3,25.1-3.1,25.1-11.9s-6.4-12.9-27.3-12.9h-14.6v-41.8h-.2ZM176.9,147.4c0-37.8,0-38.7,3.4-41.8,3.3-3.1,5-3.1,96.5-3.1s93.4.3,96.5,2.5c3.4,2.3,3.4,2.8,3.4,41.8v39.3h-199.8v-38.7ZM163.4,289.2c2.5,1.1,2.6-.6,2.6-22.2s.5-24.5.9-25.7c.9-2.3,11.8-2.5,112-2.2l110.9.5v24.5c0,23.9,0,24.5,3.1,23.4,7-2.3,11.9-1.4,15,2.5,9.8,13.2.9,32.4-16.4,35.2-5.3.8-5.6,1.2-5.6,6.5,0,20-13.2,29.9-30.4,22.6-3.1-1.2-11.3-8.2-18.3-15.5-7.6-7.7-15.6-14.4-19.7-16.3-9.4-4.2-23.9-4.2-33,.3l-7,3.4-8.1-3.7c-17.2-8.1-31.4-3.6-52.8,17-14.4,13.8-22.5,18-31.6,16.3-6.5-1.1-14.1-7.9-15.2-13.3-2.8-15.2-3.1-15.6-9.4-17.8-3.4-1.1-8.1-4.2-10.4-6.7-7-7.7-7.7-24.5-1.2-30.4,2.9-2.6,4.2-2.6,14.4,1.5h0ZM305.9,421.9c-15.2,4.3-39.7,4.6-54.7.6-24.9-6.5-52.4-24.5-60.4-39.8-1.7-3.1-1.7-3.4,0-1.9,5.4,4.5,20.4,7,36.6,6.4,14.4-.6,16.9-1.2,27.1-6.4,6.2-3.1,13.8-8.1,16.6-11,2.9-3.1,5.6-5.6,5.6-5.6,0,0,3.4,2.9,7.1,6.4,3.7,3.6,11.3,8.7,16.9,11.3,9.8,4.6,10.7,4.8,31,4.8s21.7-.5,27.6-3.3c3.6-1.9,6.5-2.8,6.5-2.3,0,2.3-11.5,14.4-19.8,20.9-11.6,8.8-25.3,15.6-40.1,19.8h.2ZM293.9,468.1c-14.9-5-19.8-5.6-26.6-2.9-2.3.9-9.4,3.4-15.5,5.3l-11.3,3.6v-17c0-15.6,0-17,2.8-16,1.4.5,8.2,2.3,15,4,15.6,3.7,24.6,3.7,40.7,0,7.1-1.7,13.2-3.1,13.6-3.1s.6,7,.6,15.5c0,18.3,1.1,17.7-19.4,10.8v-.2ZM93.2,321.1v-147.3h61.2l-.9,41.8h-15.2c-13,0-15.8.5-19.4,3.3-3.1,2.5-4,4.5-4,9.1,0,8.7,4.8,11.6,20.1,11.8h11.6c0,.2.3,13.9.3,13.9l.5,13.8-8.1,4.6c-10.8,6.4-15.2,14.4-15.2,28.8s8.7,34.5,22.9,42c3.9,2.2,5,3.6,5,7.3,0,11.5,14.9,38.4,28.3,51.4,3.4,3.3,6,6.2,5.6,6.7s-4.5,2.5-9.1,4.8c-18.3,9.1-54.1,31.1-64.9,40.1-6.2,5.3-13,10.7-15,12.2l-3.7,2.9v-147.3h0ZM316.3,673.7c0,22.5-.6,40.7-1.4,40.7s-18,7.9-38.3,17.7c-40.7,19.4-56.1,26.5-77.8,36.6l-14.4,6.7-6.2-6c-26.5-25.4-56.4-71.3-67.7-103.6-8.2-23.2-14.6-52.8-16.6-76.1l-1.1-12.4,73.4,18.1c40.3,9.9,76.1,18.9,79.5,19.8,3.4.8,20.6,5.3,38.4,9.8l32.1,8.1v40.7h0ZM293.6,598.5c-1.9,4.4-8.7,5.5-20.6,3.1l-13.2-2.6-3.4-7c-1.9-3.9-5.6-12.2-8.4-18.6-2.6-6.4-6.5-15.2-8.4-19.4-3.7-8.5-16.6-38-37.3-85.2-7.4-17-14.1-31.8-14.7-32.7-.9-1.1,1.7-3.7,7.6-7.3,4.8-3.1,9.1-5.4,9.6-5.3s4.3,2.5,8.8,5l8.1,4.6.5,29.1c.5,28.7.6,29.3,4.2,32.2,5.4,4.5,13.3,3.7,33-3.4l17.8-6.2,18.7,6.2c21.4,7.3,27.9,7.9,32.2,3.1,2.6-2.9,2.9-6.2,3.3-31.3.3-15.5.9-28.3,1.5-28.7.8-.2,5.1-2.8,9.8-5.7,9.3-5.7,8.4-5.9,19.8,2.5l3.4,2.5-2.9,6.8c-1.7,3.7-11.8,27-22.6,51.7-10.7,24.6-20.4,46.9-21.7,49.6-6.5,14.7-22.9,52.1-25.1,56.9h0ZM542.7,726.8c-29.7,29.3-40.4,38.7-43.2,38.7s-12.9-8.8-40.3-36.1c-20.1-19.7-37.5-37-38.6-38.3-1.5-2,.2-4.3,10.1-14.4l11.9-11.9,17.8,17.8c9.8,9.8,18.4,17.8,19.1,17.8s1.1-9.3,1.1-20.6.5-32.5,1.1-47.2l.9-26.6h34.7l.9,12.7c.6,7.1,1.1,28.5,1.1,47.7v34.9l18.3-18.3c9.9-9.9,18.7-18.1,19.5-18.1s6.5,5.3,13,11.6l11.9,11.8-39.3,38.6h0ZM628,700.5l-.6-50c-.6-49.7-.6-49.9-4.8-62-2.3-6.7-5.9-15.5-8.1-19.7-26-51.3-81-77.8-140.4-67.4-46.6,8.2-84.9,43.2-99.3,90.9-3.1,10.4-3.4,15.3-4,59.6l-.6,48.5h-32.5l.8-53.1c.5-49.1.8-53.8,4-64.6,10.1-33.9,30.2-62.6,60.3-86.3,16.1-12.7,50.5-27.1,72.3-30.4,2.6-.5,15.2-.6,27.9-.3,19.4.3,25.7,1.1,38,4.3,52.8,14.4,95,53.6,111.4,103.3,6.8,21.1,8.1,31.4,9,80.1l.9,46.9h-34.2,0ZM675,570.3c-8.5-25.4-23.1-51.3-36.6-64.8-6-6-6.8-7.6-7.9-17-.6-5.7-1.1-23.4-1.1-39.5v-29c-.2,0,3.4,0,3.4,0,1.9,0,8.7,2.5,15,5.6,15.8,7.6,50.2,27,91.7,51.7,6.5,3.7,15.3,15.2,18.1,23.1,2.5,7.6,2.5,122.7-.2,125.3-3.4,3.4-9.1,1.9-20.3-5.3-6.2-3.9-21.5-13.5-34.2-21.2l-23.2-14.4-4.8-14.6h0ZM753.3,652c10.7,5.1,20.8,6.2,30.1,2.9,1.7-.5,3.3-.9,4.6-1.2,1.7-.9,3.4-1.9,5.3-2.6.3-.3.8-.8,1.4-.9,1.4-.5,8.4-4.5,15.5-8.7,5.6-3.3,10.8-5.9,13.3-6.5.6-.5,1.2-.8,1.7-1.2,4-2.8,2-.8,5-2.5,4.5-2.8,3.6-2.5,6.7-4s1.1-.9,3.1-2.3c1.1-.6,2.2-1.2,3.3-1.9,1.5-1.9,6.7-4.8,18.4-11.3,3.4-1.9,7.9-4.2,11.5-6.2.5-.3.9-.6,1.4-.8.8-.5,1.7-.9,2.3-1.4,12.7-7.3,25.9-14.3,27-14.3s1.1,2,.8,4.8c0,.8-.2,1.5-.5,2.3-.5,1.5-.6,3.1-.5,4.6s0,1.2,0,1.9c-.6,4.8,0,9.9-1.4,14.7-.5,1.5-.9,2.9-1.5,4.3-5.1,26-16.7,61.7-22.3,67.5l-1.1,1.9c-.3.6-.5,1.2-.8,1.7,0,1.5-.9,3.7-2.3,5.7-.5,1.9-3.3,5.1-3.3,5.9s-1.4,2.9-3.1,4.8c-.3.3-.6.6-.8.9-.3.5-.6.9-.9,1.5s-.5.6-.6.9h0c.5,0-2.3,2.5-4.5,5.9-2,2.8-2.8,5.3-3.9,5.4-.3.5-.8.8-1.1,1.2-7,10.4-31.9,46.2-40.3,47.7-8.4,1.5-16.4-5.9-37.6-16-7.3-3.4-19.4-8.8-27.1-12.2-23.5-10.4-34.2-15.5-36.4-17.8-.5,0-1.1-.3-1.5-.3-.8-.2-1.2-.5-2.2-.5-.9-.6-1.1-.8-2-1.2s-1.7-.8-1.9-1.1c-1.2-.5-3.1-.6-4-1.5-2.5-.6-6.2-2-10.1-3.7l-10.8-5.1v-79.8l11.3-3.4c6-1.7,11.8-3.4,12.7-3.6.8-.3,5,1.5,9.1,4,4.2,2.5,12.5,6.7,18.3,9.9s4.5,2.5,9.8,6.4M905,557.8l-4.6,5.4c-2.6,2.9-12.2,9.8-21.4,15-9.1,5.1-21.1,12.1-26.6,15.3-60.4,34.9-64,36.6-68.8,31.8-2.3-2.5-2.6-7.9-2.2-63.4.5-67.1,0-65.1,11.2-76.5,6.5-7,28.7-20.9,62.7-39.5,4.8-2.5,14.3-7.7,21.1-11.6,10.4-5.9,27-14.3,28.3-14.3s.3,31,.3,68.9v68.8h0ZM905.3,375.8c-.8.5-8.2-3.1-16.7-7.7-8.4-4.6-29.6-16-47.1-24.9-17.5-9-35.5-18.4-40.1-21.1l-8.2-4.6,10.8-5.1c14.1-6.5,19.8-11,28.7-22.2,11.6-14.7,18-32.7,20.6-57.8,1.5-16.3,1.4-16.4-14.4-8.4-24.2,12.1-52.2,18.9-67.7,16.3-6.8-1.1-8.7-3.3-8.7-10.4,0-10.5,4.2-13.2,23.4-14.9,21.7-2,49.6-13.3,58.9-23.7,2.5-2.9,5.4-8.4,6.4-12.2l1.9-6.8h25.9c20,0,26,.5,26.6,2,1.2,3.4,1.2,200.8,0,201.5h-.2Z"></path>
  <path class="st0" d="M796.6,172.2c-1.4.9-1.5,1.5-.5,1.5s2.3-.8,2.8-1.5c1.2-1.9.6-1.9-2.3,0Z"></path>
  <path class="st0" d="M217.8,265.3c-5.4,2.8-8.8,10.2-7.9,17.5,1.7,12.4,14.4,18.4,25.9,12.5,5.9-3.1,8.1-7.1,8.1-15.8s-5.9-16-15.6-15.8c-3.9,0-8.5.8-10.4,1.5h0Z"></path>
  <path class="st0" d="M318.5,266.5c-14.4,8.8-7.7,31.1,9.3,31.1s12.4-2.9,15.6-9.3c3.9-7.6,2.9-13.6-2.9-19.5s-14.3-7.1-22-2.3Z"></path>
  <path class="st0" d="M755.2,355.8c-8.4,3.6-8.8,14.3-.6,18.4,6.7,3.6,14.3,4.3,22.6,2.5,11.6-2.6,17.7-9.9,13.5-16.6-3.9-6-25.6-8.7-35.5-4.3h0Z"></path>
  <path class="st0" d="M695.9,387.7c-9.8,3.9-12.2,12.1-5.6,18.3,4.6,4.3,19.4,6,27.9,3.3,11.8-3.9,12.2-16.3.8-20.8-6.8-2.8-17.2-3.1-23.1-.8h0Z"></path>
  <path class="st0" d="M821.4,387.7c-9.8,3.9-12.2,12.1-5.6,18.3,4.5,4.2,17.5,5.9,26.6,3.4,20.8-5.6,14.1-23.5-8.7-23.2-4.6,0-10.2.8-12.4,1.5h0Z"></path>
  <path class="st0" d="M758.9,420.7c-8.1,2.9-10.4,5.3-10.4,10.1,0,8.2,7.7,12.5,22,12.5s27.7-12.4,14.9-20.8c-5.3-3.4-19.5-4.5-26.5-1.9h0Z"></path>
  <path class="st0" d="M711.1,495.2c-7.7,4.3-7.7,18.4-.2,29.3,5,7,10.4,9.6,16.6,8.1,10.1-2.5,10.4-21.4.5-32.5-5.9-6.5-11.2-7.9-16.9-4.8h0Z"></path>
  <path class="st0" d="M668.8,521.5c-5.6,5.4-5.3,15,.6,24.3,5.1,8.1,8.7,10.5,15.2,10.5s9.9-3.1,10.8-10.4c1.4-11-5.1-23.4-14.3-26.8-6-2.3-8.4-1.9-12.4,2.3Z"></path>
  <path class="st0" d="M855.9,485.1c-15.6,9.4-15.5,40.3.2,40.3s19.4-12.4,19.5-27.6c0-13.8-8.7-19.5-19.7-12.7h0Z"></path>
  <path class="st0" d="M813,548.8c-10.1,7.9-14.7,29.4-8.1,36.9,3.6,3.9,12.5,4.3,17.7.8,5.6-3.9,11.2-16.4,11.2-25.1,0-14.1-10.7-20.6-20.8-12.5Z"></path>
  <path class="st0" d="M270.2,509.5c-1.1.5-2.9,2.8-4.2,5.1-6,11.8,10.4,23.2,19.4,13.6,4-4.3,4-12.7,0-16.7s-10.4-4-15.2-2Z"></path>
</svg></svg></g></g></svg>